<svg xmlns="http://www.w3.org/2000/svg" viewBox="0 0 129.0002 111.7168"><defs><style>.cls-1{fill:#ffffff;}</style></defs><title>high-volume</title><g id="Layer_2" data-name="Layer 2"><g id="Layer_1-2" data-name="Layer 1"><g id="high-volume"><polygon class="cls-1" points="50 5.858 50 105.858 17.68 73.538 0 73.538 0 38.178 17.68 38.178 50 5.858"/><path class="cls-1" d="M70.5114,76.3633l-5.6631-5.65a21.01,21.01,0,0,0,0-29.709l5.6631-5.65a29.0094,29.0094,0,0,1,0,41.01Z"/><path class="cls-1" d="M88.1887,17.6807a53.9845,53.9845,0,0,1-.0122,76.3574l-5.6534-5.66a45.9849,45.9849,0,0,0,.0083-65.041l2.8238-2.8232"/><path class="cls-1" d="M105.8586,111.7168l-5.6572-5.6563a70.986,70.986,0,0,0,0-100.4043L105.8586,0a78.9853,78.9853,0,0,1,0,111.7168Z"/></g></g></g></svg>
